<?xml version="1.0" standalone="no"?><!DOCTYPE svg PUBLIC "-//W3C//DTD SVG 1.1//EN" "http://www.w3.org/Graphics/SVG/1.1/DTD/svg11.dtd"><svg t="1480696822921" class="icon" style="" viewBox="0 0 1024 1024" version="1.1" xmlns="http://www.w3.org/2000/svg" p-id="1599" xmlns:xlink="http://www.w3.org/1999/xlink" width="128" height="128"><defs><style type="text/css"></style></defs><path d="M849.237333 408.234667c3.413333-17.066667 5.461333-34.133333 5.461333-51.882667 0-132.437333-105.813333-240.298667-236.202667-240.298667-98.986667 0-182.954667 61.44-218.453333 149.504-19.797333-9.557333-42.325333-15.018667-66.218667-15.018667-86.016 0-155.648 70.997333-155.648 157.696 0 0 0 0 0 0C86.016 415.744 13.653333 494.933333 13.653333 591.189333c0 90.794667 64.853333 166.570667 150.186667 180.906667l0 2.730667 281.941333 0 0-177.493333L373.418667 597.333333l140.629333-162.474667L655.36 596.650667 582.314667 596.650667l0 177.493333 272.384 0 0-1.365333c90.112-10.24 159.744-88.064 159.744-182.272C1015.125333 494.933333 942.08 415.744 849.237333 408.234667z" p-id="1600" fill="#e6e6e6"></path></svg>